<svg width="744" height="240" viewBox="0 0 744 240" fill="none" xmlns="http://www.w3.org/2000/svg">
<path d="M499.356 78.4436C512.805 76.6454 523.256 84.6851 530.397 95.5246C529.827 90.6961 529.917 85.5498 529.848 80.6576C533.01 81.1606 548.108 80.9305 551.382 80.6199C550.768 86.7234 551.11 98.722 551.113 105.328L551.131 151.685C551.135 166.343 553.201 179.571 542.267 191.083C538.15 195.443 532.941 198.55 527.217 200.062C521.488 201.543 511.161 201.096 504.823 201.087C495.17 201.02 485.518 201.04 475.866 201.149L475.859 186.124L475.866 181.937C486.879 182.281 498.434 181.846 509.502 182.063C515.691 182.185 520.704 182.207 525.391 177.472C531.173 171.627 530.012 163.686 529.957 155.829C523.917 163.315 515.942 169.668 506.09 170.415C452.782 174.454 446.473 84.4691 499.356 78.4436ZM510.188 151.726C533.783 146.271 537.551 113.905 518.621 100.329C515.394 98.0145 509.07 96.675 505.168 97.4574C482.189 100.766 478.109 134.132 495.025 147.418C499.011 150.547 505.182 152.589 510.188 151.726Z" fill="#C0F604"/>
<path d="M238.595 55.6066C243.801 56.245 254.573 55.8169 260.028 55.5801C259.705 66.0191 260.029 76.4786 259.921 86.9214C259.891 89.8055 259.973 92.6837 259.551 95.5447C260.679 93.6737 262.066 91.4228 263.437 89.744C268.741 83.2157 276.365 79.1375 284.613 78.4189C294.351 77.622 303.998 80.8268 311.438 87.3297C330.578 103.896 332.14 137.645 316.198 157.05C313.592 160.618 309.331 163.903 305.49 166.025C288.918 175.181 268.452 170.594 259.256 152.867C259.596 157.969 259.827 163.078 259.947 168.191C253.279 167.813 245.331 167.996 238.631 168.139C238.525 163.05 238.524 157.753 238.598 152.653C239.066 120.391 238.012 87.835 238.595 55.6066ZM284.671 151.789C317.299 144.083 307.72 94.4599 280.134 97.4659C257.372 100.37 252.489 133.904 269.169 147.229C273.278 150.511 279.304 152.508 284.498 151.814L284.671 151.789Z" fill="#C0F604"/>
<path d="M402.069 78.453C414.401 77.0121 425.069 83.7958 431.941 93.8735C431.564 90.3964 431.669 84.4234 431.633 80.7539C436.37 81.091 449.307 81.0668 453.827 80.635C453.184 109.107 453.7 139.538 453.743 168.189C446.694 167.865 438.784 167.966 431.72 168.147C431.698 164.635 431.781 161.018 431.825 157.497L431.578 157.247L430.275 158.498C430.173 158.631 430.072 158.763 429.97 158.892C425.073 165.013 415.366 170.057 407.874 170.49C354.773 173.559 349.783 83.5612 402.069 78.453ZM412.803 151.706C443.978 144.461 436.929 94.4806 407.867 97.4661C384.939 100.485 380.696 133.991 397.427 147.28C401.427 150.458 407.257 152.477 412.328 151.787C412.488 151.765 412.647 151.738 412.803 151.706Z" fill="#C0F604"/>
<path d="M600.532 78.5199C625.278 76.9021 646.597 96.2348 648.107 121.66C649.617 147.084 630.741 168.936 605.988 170.421C581.329 171.9 560.151 152.597 558.648 127.266C557.142 101.935 575.876 80.1312 600.532 78.5199ZM607.97 150.947C614.587 148.817 619.252 145.962 622.497 139.5C626.073 132.386 626.752 121.508 624.283 113.895C620.192 101.261 611.727 97.2391 599.82 97.788C595.813 98.7561 592.691 99.8823 589.496 102.765C577.695 113.415 577.887 139.368 591.939 148.048C597.159 151.275 602.085 151.416 607.97 150.947Z" fill="#C0F604"/>
<path d="M134.81 102.653C146.992 73.8996 175.221 57.5861 205.057 56.2797C208.581 56.1257 212.197 55.8404 215.725 55.6365L215.697 86.5232C205.857 84.1887 192.69 85.9619 183.048 88.4888C145.964 99.1907 146.906 135.667 147.092 168.17C138.841 167.937 130.585 167.932 122.333 168.155C122.451 135.402 123.633 98.6485 85.9199 88.3165C77.0938 85.8985 62.5591 84.0507 53.6974 86.6585C53.6876 77.6735 53.2628 64.0543 53.7972 55.6309C55.4354 55.9452 63.3373 56.2141 65.4072 56.3472C73.4481 56.8324 81.3925 58.399 89.0367 61.0072C104.254 66.2463 118.012 76.1964 127.585 89.5684C130.457 93.5806 132.651 98.1991 134.81 102.653Z" fill="#C0F604"/>
<path d="M335.839 55.5693C340.765 56.2715 352.089 55.8046 357.325 55.5772C356.887 68.1146 357.206 82.6877 357.205 95.368L357.236 168.218C350.472 167.842 342.601 167.964 335.811 168.133L335.839 55.5693Z" fill="#C0F604"/>
<path d="M666.53 55.5986C677.323 53.8567 687.45 61.4048 689.189 72.4823C690.928 83.5597 683.621 93.9965 672.847 95.8268C662.007 97.6675 651.778 90.1093 650.032 78.9692C648.282 67.8291 655.68 57.3505 666.53 55.5986ZM670.28 92.8196C679.464 92.4243 686.597 84.4588 686.22 75.0237C685.842 65.5886 678.096 58.2526 668.908 58.6337C659.717 59.0156 652.566 66.9855 652.943 76.4307C653.321 85.8755 661.085 93.2153 670.28 92.8196Z" fill="#C0F604"/>
<path d="M662.413 66.5938C667.604 67.136 678.759 64.5252 676.803 73.4875C676.436 75.182 674.262 76.2228 672.911 76.9351C675.63 79.5279 676.639 81.5122 678.422 84.77L674.145 84.6708C672.82 82.7537 669.426 76.9545 667.172 77.1118C665.637 78.7732 666.105 82.4274 666.152 84.7879C664.831 84.8461 663.716 84.9434 662.649 84.3124C662.232 81.6823 662.424 69.9858 662.413 66.5938ZM666.203 74.4201C667.775 74.3866 671.343 74.4559 672.712 73.8138C673.162 72.5835 673.34 72.2691 672.958 71.0482C671.27 69.1706 668.53 69.6841 666.098 69.6229L666.203 74.4201Z" fill="#C0F604"/>
</svg>
