<svg width="1066" height="285" viewBox="0 0 1066 285" fill="none" xmlns="http://www.w3.org/2000/svg">
<path d="M240.38 169.184C204.56 169.184 175.422 198.359 175.422 234.224C175.422 252.167 182.582 268.882 195.581 281.284L198.415 283.987L211.414 269.457L208.791 266.908C199.85 258.243 194.911 246.627 194.911 234.224C194.911 209.113 215.3 188.698 240.38 188.698C254.642 188.698 267.814 195.234 276.525 206.64L278.688 209.477L294.865 198.57L292.491 195.369C280.085 178.711 261.094 169.164 240.38 169.164" fill="white"/>
<path d="M54.4856 169.183C90.3052 169.183 119.443 198.359 119.443 234.224C119.443 252.167 112.283 268.882 99.2841 281.284L96.4507 283.987L83.4515 269.457L86.0743 266.908C95.0148 258.243 99.9541 246.627 99.9541 234.224C99.9541 209.113 79.5651 188.698 54.4856 188.698C40.2228 188.698 27.0513 195.234 18.3405 206.64L16.1773 209.477L0 198.57L2.37392 195.368C14.7796 178.711 33.7711 169.164 54.4856 169.164" fill="white"/>
<path d="M240.38 116.488C204.56 116.488 175.422 87.3128 175.422 51.4474C175.422 33.5051 182.582 16.7896 195.581 4.38722L198.415 1.68437L211.414 16.2146L208.791 18.764C199.85 27.4285 194.911 39.045 194.911 51.4474C194.911 76.5589 215.3 96.974 240.38 96.974C254.642 96.974 267.814 90.4373 276.525 79.0317L278.688 76.1947L294.865 87.1019L292.491 90.3031C280.085 106.961 261.094 116.507 240.38 116.507" fill="white"/>
<path d="M54.4856 116.488C90.3052 116.488 119.443 87.3128 119.443 51.4474C119.443 33.5051 112.283 16.7896 99.2841 4.38721L96.4507 1.68437L83.4515 16.2145L86.0743 18.764C95.0148 27.4285 99.9541 39.045 99.9541 51.4474C99.9541 76.5589 79.5651 96.974 54.4856 96.974C40.2228 96.974 27.0513 90.4373 18.3405 79.0317L16.1773 76.1947L0 87.1019L2.37392 90.3031C14.7796 106.961 33.7711 116.507 54.4856 116.507" fill="white"/>
<path d="M401.56 38.6589C403.868 36.1628 406.612 34.2595 409.824 32.9802C413.036 31.6697 416.622 31.0457 420.582 31.0457C425.603 31.0457 430.156 32.2002 434.179 34.5403C438.201 36.8804 441.881 40.1566 445.187 44.3688L469.136 22.7773C463.554 15.4137 456.506 9.79735 447.993 5.89713C439.48 1.99692 429.688 0.0624076 418.649 0.0624076C409.637 0.0624076 401.311 1.49769 393.67 4.36825C385.999 7.2388 379.357 11.3262 373.744 16.6305C368.131 21.9348 363.765 28.2063 360.647 35.4763C357.528 42.7151 356 50.734 356 59.5016C356 68.2693 357.559 76.2882 360.647 83.527C363.765 90.7658 368.131 97.0685 373.744 102.373C379.357 107.677 385.999 111.764 393.67 114.635C401.342 117.506 409.668 118.941 418.649 118.941C429.688 118.941 439.449 116.975 447.993 113.013C456.506 109.05 463.554 103.465 469.136 96.1948L445.187 74.6033C441.85 78.8155 438.201 82.0917 434.179 84.4318C430.156 86.7719 425.634 87.9264 420.582 87.9264C416.622 87.9264 413.036 87.2712 409.824 85.9919C406.612 84.7126 403.837 82.8093 401.56 80.3132C399.253 77.817 397.475 74.8217 396.165 71.2959C394.887 67.7701 394.232 63.8387 394.232 59.5328C394.232 55.227 394.887 51.2956 396.165 47.7698C397.444 44.244 399.253 41.2486 401.56 38.7525" fill="white"/>
<path d="M580.839 16.8177C575.163 11.451 568.459 7.3324 560.756 4.39944C553.054 1.46648 544.572 0 535.372 0C526.173 0 517.816 1.46648 510.051 4.39944C502.286 7.3324 495.55 11.451 489.875 16.8177C484.199 22.1844 479.771 28.4559 476.621 35.6635C473.472 42.8711 471.881 50.7964 471.881 59.4392C471.881 68.0821 473.472 75.8825 476.621 83.1525C479.771 90.3913 484.199 96.7253 489.875 102.061C495.55 107.427 502.286 111.546 510.051 114.479C517.816 117.412 526.298 118.878 535.528 118.878C544.759 118.878 553.054 117.412 560.756 114.479C568.459 111.546 575.163 107.427 580.839 102.061C586.514 96.6941 590.942 90.3913 594.092 83.1525C597.242 75.9137 598.832 67.9885 598.832 59.4392C598.832 50.89 597.242 42.8399 594.092 35.6635C590.942 28.4559 586.514 22.1844 580.839 16.8177ZM558.667 71.3583C557.388 74.8841 555.579 77.8482 553.272 80.282C550.964 82.7157 548.283 84.5878 545.227 85.8983C542.17 87.2087 538.865 87.8328 535.341 87.8328C531.817 87.8328 528.512 87.1775 525.456 85.8983C522.4 84.619 519.718 82.7469 517.41 80.282C515.102 77.8482 513.325 74.8841 512.015 71.3583C510.737 67.8325 510.082 63.8699 510.082 59.408C510.082 54.9462 510.737 50.9836 512.015 47.489C513.294 43.9632 515.102 40.999 517.41 38.5653C519.718 36.1316 522.4 34.2595 525.456 32.949C528.512 31.6385 531.817 31.0145 535.341 31.0145C538.865 31.0145 542.17 31.6697 545.227 32.949C548.283 34.2595 550.964 36.1004 553.272 38.5653C555.579 40.999 557.357 43.9632 558.667 47.489C559.945 51.0148 560.6 54.9774 560.6 59.408C560.6 63.8387 559.945 67.8325 558.667 71.3583Z" fill="white"/>
<path d="M725.002 89.7048C730.365 81.218 733.047 71.1086 733.047 59.408C733.047 47.7073 730.365 37.4732 725.002 29.0487C719.638 20.5931 712.185 14.0719 702.674 9.48525C693.132 4.8986 682.093 2.58968 669.557 2.58968H614.111V116.257H669.557C682.093 116.257 693.132 113.949 702.674 109.362C712.216 104.775 719.669 98.2229 725.002 89.7048ZM691.416 74.1352C689.171 78.1914 686.022 81.2492 682.03 83.3085C678.007 85.3678 673.33 86.3974 667.966 86.3974H652.062V32.4809H667.966C673.33 32.4809 678.007 33.5106 682.03 35.5699C686.053 37.6292 689.171 40.6558 691.416 44.6496C693.662 48.6434 694.784 53.5733 694.784 59.4392C694.784 65.3051 693.662 70.079 691.416 74.1352Z" fill="white"/>
<path d="M841.85 87.3647H785.593V72.4191H833.18V44.8056H785.593V31.5136H839.76V2.58968H748.328V116.257H841.85V87.3647Z" fill="white"/>
<path d="M890.092 116.257L909.021 85.867L928.48 116.257H971.888L930.382 57.5359L969.487 2.58968H928.667L910.019 31.1704L890.872 2.58968H848.274L887.504 58.8775L846.84 116.257H890.092Z" fill="white"/>
<path d="M394.167 237.913H441.723V210.331H394.167V197.007H448.303V168.115H356.871V281.782H450.392V252.858H394.167V237.913Z" fill="white"/>
<path d="M544.042 219.785L501.288 168.115H470.104V281.782H507.057V230.081L549.811 281.782H580.995V168.115H544.042V219.785Z" fill="white"/>
<path d="M638.06 237.913H685.647V210.331H638.06V197.007H692.227V168.115H600.764V281.782H694.316V252.858H638.06V237.913Z" fill="white"/>
<path d="M809.545 233.607C813.724 227.273 815.814 219.722 815.814 210.955C815.814 197.756 811.323 187.304 802.311 179.628C793.299 171.952 780.17 168.115 762.925 168.115H710.38V281.782H748.3V253.202H758.622L777.707 281.782H818.215L794.608 246.837C800.908 243.592 805.897 239.192 809.545 233.638M773.809 201.22C776.335 203.591 777.582 206.836 777.582 210.955C777.582 215.073 776.335 218.318 773.809 220.689C771.283 223.061 767.416 224.246 762.146 224.246H748.331V197.631H762.146C767.385 197.631 771.283 198.817 773.809 201.22Z" fill="white"/>
<path d="M872.72 204.15C875.09 201.654 877.959 199.75 881.327 198.471C884.695 197.161 888.468 196.537 892.647 196.537C897.667 196.537 902.251 197.597 906.399 199.688C910.515 201.81 914.351 204.899 917.906 209.017L942.167 187.426C936.491 180.405 929.288 174.976 920.556 171.201C911.825 167.425 901.877 165.522 890.744 165.522C881.42 165.522 872.876 166.957 865.111 169.828C857.346 172.699 850.61 176.786 844.935 182.09C839.259 187.395 834.862 193.666 831.744 200.936C828.625 208.175 827.097 216.194 827.097 224.961C827.097 233.729 828.657 241.748 831.744 248.987C834.862 256.225 839.228 262.528 844.841 267.833C850.454 273.137 857.097 277.224 864.768 280.095C872.439 282.965 880.828 284.401 889.934 284.401C898.197 284.401 906.711 283.153 915.473 280.656C924.267 278.16 932.094 274.603 938.955 269.954V221.904H905.993V250.703C905.557 250.89 905.12 251.046 904.715 251.202C900.63 252.668 896.451 253.386 892.179 253.386C887.906 253.386 884.445 252.7 881.171 251.358C877.896 250.016 875.09 248.082 872.72 245.586C870.35 243.09 868.541 240.094 867.263 236.568C865.984 233.043 865.329 229.174 865.329 224.961C865.329 220.531 865.984 216.568 867.263 213.105C868.541 209.641 870.381 206.677 872.72 204.181" fill="white"/>
<path d="M1065.91 168.115H1029.27L1006.1 207.491L983.146 168.115H943.106L985.547 240.097V281.782H1023.47V240.534L1065.91 168.115Z" fill="white"/>
<path d="M277.54 132.821H238.925C193.916 132.821 157.446 96.3039 157.446 51.2374V12.5733C157.446 10.2922 155.608 8.45195 153.329 8.45195H141.536C139.258 8.45195 137.42 10.2922 137.42 12.5733V51.2374C137.42 96.3039 100.95 132.821 55.9406 132.821H17.3259C15.0476 132.821 13.2097 134.661 13.2097 136.942V148.751C13.2097 151.032 15.0476 152.872 17.3259 152.872H55.9406C100.95 152.872 137.42 189.389 137.42 234.456V273.12C137.42 275.401 139.258 277.241 141.536 277.241H153.329C155.608 277.241 157.446 275.401 157.446 273.12V234.456C157.446 189.389 193.916 152.872 238.925 152.872H277.54C279.818 152.872 281.656 151.032 281.656 148.751V136.942C281.656 134.661 279.818 132.821 277.54 132.821Z" fill="white"/>
</svg>
