<svg preserveAspectRatio="none" overflow="visible" style="display: block;" width="191" height="86" viewBox="0 0 191 86" fill="none" xmlns="http://www.w3.org/2000/svg">
<g id="clip452 1 [Vectorized]">
<path id="Vector" d="M175.027 34.0429C175.682 33.969 176.801 34.0369 177.424 34.222C178.352 34.4975 179.24 35.2091 180.144 35.5669C181.44 36.0802 182.83 36.2072 183.972 37.0949C186.432 39.0076 187.374 42.8226 187.864 45.6867C188.812 51.2427 187.344 56.0404 184.019 60.5504C181.914 63.4065 178.853 65.9704 175.206 66.5078C175.105 66.5243 175.005 66.5398 174.905 66.5545C172.48 66.908 169.356 66.063 167.457 64.5641C157.13 56.4117 161.693 35.9412 175.027 34.0429ZM170.327 59.8991C173.333 59.7113 176.199 58.0572 178.194 55.8206C180.699 53.012 181.226 48.8992 181.884 45.3675C182.439 42.3906 182.214 40.492 178.547 40.3139C175.061 40.6402 172.846 42.4146 170.656 45.0719C168.238 48.0067 166.468 52.2492 166.723 56.1003C166.856 58.1158 168.089 60.0016 170.327 59.8991Z" fill="white"/>
<path id="Vector_2" d="M21.6483 12.7082C23.6496 12.5084 25.4334 12.6339 27.3156 13.4067C28.0893 13.7244 31.417 15.3462 30.9465 16.3881C29.3028 17.8071 17.032 19.789 14.0781 20.4128C12.8726 20.6681 11.681 20.9844 10.508 21.3605C10.0761 28.1902 9.30475 35.0644 8.87001 41.9C8.73846 43.9685 8.80839 46.2299 8.26232 48.2305C11.6194 47.4563 14.712 45.6401 18.2046 45.2554C21.7499 44.8475 25.3136 45.8507 28.1164 48.0455C26.3807 51.2093 24.2077 50.4783 21.3373 51.0584C19.466 51.4368 9.74262 53.7843 8.98404 54.8655C8.3842 56.8117 10.2352 63.0616 10.9494 65.0534C11.6352 64.8584 12.1271 64.7484 12.8282 64.6159C18.2831 63.4115 21.1853 61.4151 27.3003 63.7229C27.9312 63.9609 28.4628 64.1379 28.7639 64.7723C28.7921 64.9969 28.7728 65.3534 28.5903 65.5176C25.3102 68.2585 19.9761 68.9662 15.95 70.2313C13.873 70.884 9.8406 72.4506 8.15747 70.7934C2.36503 65.0903 3.07835 53.4177 2.86765 45.8783C2.71407 40.3829 3.1238 35.7266 3.44037 30.3304C3.63664 27.2362 4.1429 24.0669 4.37824 20.973C4.46588 19.8208 2.76511 17.425 3.54899 16.3879C4.67006 15.8136 9.23438 15.0795 10.7673 14.7852C13.7029 14.2215 18.7543 12.8206 21.6483 12.7082Z" fill="white"/>
<path id="Vector_3" d="M68.6683 29.8097C68.9134 29.7611 69.2079 29.7986 69.4586 29.8092C73.0956 29.9621 76.3035 31.1494 78.7872 33.8865C79.0498 34.176 79.3847 34.5631 79.3482 34.9792C79.3295 35.192 79.1416 35.3901 78.9822 35.5277C76.8947 37.3309 73.4995 35.2465 71.1451 35.139C69.9827 35.086 68.8005 35.2695 67.6507 35.4188C59.5351 36.4725 44.4618 41.4968 38.4824 46.9463C38.0499 47.3405 37.0728 48.1957 37.0467 48.7852C37.9128 50.2195 58.1495 54.9076 61.2997 56.1138C63.7273 57.0619 65.6704 58.9381 66.6936 61.3216C67.1032 62.2508 67.4809 63.474 67.075 64.4558C66.2923 66.3493 56.4458 70.5911 54.2076 71.4845C50.1462 73.4681 47.0755 73.7789 42.9983 71.622C40.5601 70.2083 42.5795 69.5146 43.9846 68.8831C48.139 67.0158 57.8829 64.9266 60.3523 61.2613C57.2401 58.3946 49.3578 57.9007 45.1715 56.6742C41.4347 55.5795 37.2656 54.7145 34.1272 52.2149C31.7982 50.36 31.1935 44.856 33.3146 42.6192C34.9002 41.0431 37.8116 39.4 39.842 38.3496C49.0624 33.5794 58.2392 30.374 68.6683 29.8097Z" fill="white"/>
<path id="Vector_4" d="M113.273 29.807C113.887 29.7366 114.761 29.824 115.41 29.8921C118.883 30.2559 121.547 31.6211 123.827 34.2474C124.02 34.4705 124.153 34.716 124.115 35.0132C123.483 35.7801 122.689 36.1462 121.695 36.216C119.863 36.3446 117.97 35.4009 116.144 35.1857C112.79 34.7909 105.942 36.5847 102.615 37.5842C96.7852 39.3348 88.1314 42.7398 83.5081 46.6168C82.9506 47.0843 82.1299 47.7888 81.84 48.4588C81.7781 48.602 81.7506 48.7242 81.8246 48.8643C82.5029 50.1483 102.768 54.9559 105.555 55.9392C108.267 56.8962 110.182 58.69 111.409 61.2987C111.87 62.2793 112.278 63.3274 111.867 64.3953C111.147 66.2634 101.472 70.4158 99.284 71.3857C96.007 72.6389 93.4145 73.9419 89.912 72.5416C88.9524 72.1579 86.7543 71.4835 86.5081 70.3507C86.5896 70.032 86.6443 69.9351 86.9607 69.7676C92.6644 66.7494 100.34 65.9083 105.164 61.4701C103.166 59.2166 99.8174 58.8908 96.9787 58.2051C90.9765 56.7551 83.9577 55.9858 78.8806 52.2578C76.598 50.5817 75.9112 44.8983 77.8943 42.7657C79.5597 41.1035 81.8553 39.7853 83.9361 38.6855C93.2555 33.7599 102.695 30.4143 113.273 29.807Z" fill="white"/>
<path id="Vector_5" d="M150.177 25.2966C150.284 25.2879 150.39 25.2809 150.497 25.2754C151.655 25.218 153.354 25.8216 154.141 26.6311C155.702 28.2356 153.934 28.5721 153.08 29.1274C150.293 30.9413 147.72 33.2995 145.476 35.7327C139.749 41.9435 134.387 49.3548 132.236 57.6149C131.628 60.0115 131.535 62.3417 131.566 64.7874C131.587 66.5094 131.987 67.3324 133.17 68.4505C138.746 68.6646 145.903 63.789 149.943 60.1606C150.677 59.6016 151.961 57.205 152.958 57.269C156.494 57.496 155.365 61.3026 154.202 62.8665C151.112 67.0842 143.265 71.972 138.123 73.3683C135.625 74.0088 132.529 73.3063 130.386 71.9736C120.173 65.6229 126.224 49.6969 131.108 41.7984C135.316 34.9901 142.118 27.1379 150.177 25.2966Z" fill="white"/>
</g>
</svg>
